<?xml version="1.0" standalone="no"?>
<!DOCTYPE svg PUBLIC "-//W3C//DTD SVG 20010904//EN"
 "http://www.w3.org/TR/2001/REC-SVG-20010904/DTD/svg10.dtd">
<svg version="1.0" xmlns="http://www.w3.org/2000/svg"
 width="500.000000pt" height="500.000000pt" viewBox="0 0 500.000000 500.000000"
 preserveAspectRatio="xMidYMid meet">
<style>
path {
  color: #6C6CF1;
}
@media ( prefers-color-scheme: dark ) {
  path {
    color: #45D5D1;
  }
}
</style>
<metadata>
Created by potrace 1.16, written by Peter Selinger 2001-2019
</metadata>
<g transform="translate(0.000000,500.000000) scale(0.100000,-0.100000)"
fill="currentColor" stroke="currentColor">
<path d="M500 2588 l0 -1913 445 445 445 445 0 1467 0 1468 -445 0 -445 0 0
-1912z" />
<path d="M1650 3075 l0 -1425 1425 0 1425 0 0 1425 0 1425 -1425 0 -1425 0 0
-1425z" />
<path d="M1125 950 l-450 -450 1913 0 1912 0 0 450 0 450 -1463 0 -1462 0
-450 -450z" />
</g>
</svg>
